<?xml version="1.0" standalone="no"?>
<!DOCTYPE svg PUBLIC "-//W3C//DTD SVG 20010904//EN"
 "http://www.w3.org/TR/2001/REC-SVG-20010904/DTD/svg10.dtd">
<svg version="1.0" xmlns="http://www.w3.org/2000/svg"
 width="300.000000pt" height="299.000000pt" viewBox="0 0 300.000000 299.000000"
 preserveAspectRatio="xMidYMid meet">
<metadata>
Created by potrace 1.10, written by Peter Selinger 2001-2011
</metadata>
<g transform="translate(0.000000,299.000000) scale(0.100000,-0.100000)"
fill="#000000" stroke="none">
<path d="M1450 2681 c-19 -11 -44 -22 -55 -26 -19 -6 -19 -7 -2 -16 23 -13 22
-34 -3 -59 -29 -29 -45 -14 -20 18 19 23 19 27 5 35 -22 12 -31 1 -15 -18 11
-14 10 -17 -8 -22 -22 -5 -31 -23 -12 -23 6 0 10 -10 10 -22 0 -16 -3 -19 -8
-10 -5 7 -16 10 -28 6 -18 -6 -18 -6 1 9 18 14 15 15 -35 12 -37 -2 -55 -7
-55 -15 0 -8 -6 -15 -14 -18 -8 -3 -11 0 -7 7 5 7 -2 11 -18 11 -14 0 -26 5
-26 11 0 5 -4 8 -9 4 -5 -3 -12 -1 -15 4 -3 5 3 11 14 14 11 3 20 1 20 -3 0
-4 9 -6 20 -3 11 3 20 12 20 20 0 13 -3 13 -16 2 -10 -8 -18 -9 -22 -3 -4 5
-37 11 -74 13 l-67 2 -27 -40 c-15 -23 -33 -41 -40 -41 -8 0 -14 -4 -14 -10 0
-5 9 -10 20 -10 11 0 20 5 20 10 0 6 5 10 11 10 8 0 8 -4 -1 -15 -6 -8 -9 -19
-5 -26 4 -6 3 -14 -3 -18 -23 -14 -16 -34 13 -38 28 -4 29 -3 11 10 -19 14
-19 14 0 19 10 2 33 -1 49 -8 l30 -13 -27 -1 c-16 0 -28 -4 -28 -9 0 -16 -29
-20 -60 -10 -25 9 -28 14 -19 30 5 11 7 23 4 28 -3 5 1 11 7 14 7 2 0 4 -15 4
-20 0 -27 -4 -23 -13 3 -7 1 -16 -3 -19 -5 -3 -7 -14 -4 -25 4 -13 -1 -22 -13
-27 -11 -4 -24 -13 -30 -21 -9 -12 -15 -12 -33 -3 -21 12 -22 11 -12 -8 14
-25 14 -41 1 -41 -5 0 -10 7 -10 16 0 14 -2 14 -16 -1 -18 -17 -35 -16 -42 4
-3 9 2 11 18 6 14 -5 20 -3 16 3 -3 6 0 12 6 15 10 4 10 7 1 17 -10 11 -14 10
-19 -4 -5 -13 -9 -14 -21 -4 -10 8 -17 9 -21 1 -4 -6 -26 -16 -49 -22 -45 -12
-73 -42 -73 -78 0 -12 -7 -29 -16 -38 -11 -11 -13 -20 -7 -26 7 -7 16 -3 27
12 9 13 16 19 16 14 0 -6 12 -18 28 -27 15 -10 21 -18 13 -18 -8 0 -24 8 -35
18 -18 15 -19 15 -8 0 10 -12 11 -22 3 -35 -9 -16 -10 -16 -11 5 0 25 -3 26
-31 11 -17 -9 -18 -13 -7 -26 7 -9 12 -19 12 -22 -1 -3 1 -12 4 -20 3 -8 -3
-20 -13 -27 -10 -8 -15 -14 -9 -14 5 0 -7 -14 -26 -32 -19 -17 -27 -28 -17
-25 11 4 17 1 17 -9 0 -8 -4 -13 -9 -9 -5 3 -17 -2 -26 -11 -9 -9 -19 -14 -22
-11 -3 4 -14 2 -24 -4 -11 -5 -19 -6 -19 -1 0 5 13 15 28 21 29 12 42 51 17
51 -8 0 -12 -6 -9 -14 3 -8 1 -17 -5 -21 -6 -3 -11 -1 -11 4 0 15 -20 14 -20
-1 -1 -7 -19 -26 -41 -41 l-40 -28 3 -67 c2 -37 7 -70 12 -74 6 -4 4 -13 -3
-22 -11 -13 -11 -16 2 -16 8 0 17 9 20 20 3 11 0 20 -6 20 -8 0 -8 3 0 11 8 8
8 21 -2 49 -12 33 -11 39 1 44 8 3 14 15 14 26 0 25 25 37 45 20 12 -10 16 -9
21 4 5 12 10 13 25 5 14 -7 19 -6 19 3 1 8 7 5 17 -7 15 -20 15 -20 10 2 -6
26 8 41 17 18 6 -18 -2 -45 -15 -45 -5 0 -10 -12 -10 -27 -1 -21 -2 -23 -6 -8
-6 23 -32 55 -45 55 -5 0 -6 -4 -3 -10 3 -5 1 -10 -4 -10 -6 0 -11 -7 -11 -15
0 -8 5 -15 11 -15 5 0 8 4 5 9 -4 5 3 7 14 4 23 -6 26 -19 6 -26 -17 -7 -10
-47 8 -47 6 0 3 -7 -8 -15 -10 -7 -15 -18 -12 -23 3 -6 2 -20 -2 -32 -7 -20
-9 -20 -21 -6 -9 11 -10 16 -2 16 6 0 11 4 11 10 0 5 -6 7 -13 5 -6 -3 -17 3
-24 14 -10 16 -9 20 8 24 15 4 19 2 15 -9 -6 -17 5 -19 21 -3 12 12 -10 40
-41 52 -15 6 -16 10 -6 22 7 8 9 15 4 15 -5 0 -2 5 6 10 13 9 13 10 0 10 -8 0
-20 -11 -27 -25 -10 -22 -8 -27 8 -35 25 -14 25 -33 0 -25 -16 5 -19 1 -18
-15 1 -11 5 -20 9 -20 4 0 8 -12 8 -26 0 -14 4 -23 10 -19 11 7 14 -8 3 -19
-4 -3 -13 4 -20 16 -12 22 -12 21 -8 -9 2 -18 6 -37 9 -42 4 -5 2 -13 -4 -16
-6 -4 -8 -15 -5 -26 4 -12 1 -21 -9 -25 -9 -3 -16 -14 -16 -23 0 -14 -2 -14
-11 -1 -9 12 -10 12 -5 -4 6 -16 4 -17 -9 -6 -19 15 -28 9 -19 -14 3 -9 11
-13 17 -9 6 4 7 1 3 -8 -4 -8 2 -2 14 13 17 22 25 26 39 18 10 -5 21 -7 23 -4
3 3 5 -18 5 -46 -1 -27 -4 -50 -8 -50 -4 0 -14 12 -24 26 -16 25 -16 26 4 19
12 -4 21 -2 21 4 0 6 -6 11 -12 11 -9 0 -8 4 2 10 8 5 13 10 10 11 -3 0 -13 2
-22 4 -10 2 -20 -5 -23 -16 -8 -24 -34 -25 -51 -1 -12 16 -13 16 -20 -3 -3
-11 -17 -41 -29 -68 l-23 -47 -11 33 c-9 27 -8 41 4 70 8 20 15 48 15 63 0 33
-21 104 -30 104 -12 0 -33 -87 -33 -133 1 -23 -3 -46 -7 -52 -5 -5 -8 -14 -7
-19 1 -5 -11 -14 -26 -19 -33 -11 -53 2 -43 29 5 12 14 15 36 11 31 -7 51 7
25 16 -14 6 -115 -17 -142 -32 -10 -5 5 -14 52 -29 51 -17 71 -20 86 -11 28
14 35 5 20 -27 -6 -15 -14 -24 -18 -21 -3 4 -14 2 -25 -4 -17 -9 -18 -7 -12
15 10 41 -3 30 -31 -24 -14 -27 -23 -50 -20 -50 16 0 105 52 105 61 0 5 4 7
10 4 5 -3 10 1 10 10 0 26 35 13 38 -14 5 -31 -19 -46 -35 -24 -12 16 -13 15
-13 -1 0 -25 22 -96 29 -96 9 0 31 75 31 107 1 27 2 26 22 -12 12 -22 21 -46
19 -54 -2 -9 3 -12 14 -7 12 4 15 1 13 -16 -2 -14 3 -22 14 -24 15 -2 16 1 6
19 -11 22 -11 22 10 3 12 -10 19 -22 17 -26 -3 -5 0 -10 6 -12 7 -2 13 -13 13
-24 1 -11 6 -26 11 -34 7 -11 10 -10 16 6 7 18 8 18 8 -3 1 -12 9 -29 18 -39
17 -17 17 -17 -4 -12 -20 5 -21 3 -12 -21 9 -24 8 -25 -6 -7 -8 11 -15 28 -15
39 0 10 -5 15 -10 12 -6 -4 -8 -10 -5 -15 3 -4 1 -19 -4 -32 -7 -17 -10 -18
-10 -5 -1 9 -5 17 -10 17 -18 0 -18 -15 0 -34 18 -18 18 -18 25 10 l8 29 6
-25 c4 -14 3 -27 0 -30 -4 -3 -12 -14 -19 -25 -8 -12 -11 -14 -8 -4 5 15 -9
39 -23 39 -3 0 -7 -30 -8 -67 l-2 -68 47 -43 c34 -32 48 -40 54 -30 13 19 11
28 -6 28 -8 0 -15 4 -15 9 0 5 -9 11 -20 14 -12 3 -20 14 -20 25 0 12 -4 24
-10 27 -6 3 -7 -1 -4 -9 3 -9 2 -16 -4 -16 -6 0 -9 8 -7 17 2 10 4 24 4 31 1
7 9 16 18 19 10 4 21 11 25 17 4 6 10 7 15 3 4 -5 -3 -16 -16 -26 -16 -12 -20
-21 -12 -25 6 -4 11 -16 11 -27 0 -10 7 -19 15 -19 8 0 15 5 15 10 0 6 -5 10
-11 10 -5 0 -7 5 -4 10 3 6 1 10 -5 10 -7 0 -10 6 -7 13 2 6 12 11 22 9 13 -3
16 1 13 16 -4 15 -1 18 13 15 10 -3 16 -12 14 -23 -2 -10 3 -21 11 -24 9 -3
12 -11 9 -16 -5 -8 -11 -8 -19 -1 -13 11 -26 5 -26 -11 0 -5 5 -6 10 -3 15 10
12 -2 -6 -20 -9 -9 -14 -18 -11 -21 10 -10 57 30 63 54 5 17 9 20 15 11 4 -7
5 -17 3 -21 -3 -4 -1 -8 5 -8 12 0 24 -36 16 -50 -4 -6 -15 -5 -30 2 -14 6
-21 16 -18 22 4 6 -1 5 -10 -3 -15 -12 -15 -15 6 -32 16 -13 18 -18 7 -19 -8
0 2 -11 23 -26 21 -14 35 -29 32 -33 -3 -5 2 -11 10 -15 18 -6 20 -32 3 -42
-8 -5 -9 -2 -5 10 4 10 1 19 -8 22 -8 4 -15 12 -15 20 0 22 -31 17 -37 -6 -3
-11 -9 -20 -14 -20 -5 0 -6 7 -3 15 6 15 -7 21 -19 9 -9 -9 4 -34 18 -34 8 0
15 -10 17 -22 3 -23 38 -39 38 -19 0 6 -7 11 -16 11 -8 0 -13 4 -9 10 3 5 15
6 28 1 12 -4 28 -6 35 -4 8 3 12 -5 11 -24 0 -20 -2 -23 -7 -11 -5 12 -11 15
-22 8 -17 -10 -14 -15 18 -24 17 -6 22 -3 23 11 0 10 2 28 5 41 2 14 0 21 -6
17 -5 -3 -10 -2 -10 4 0 5 -3 16 -6 25 -3 9 -2 16 4 16 16 0 32 -52 28 -93 -3
-31 0 -37 13 -32 9 2 23 0 31 -6 13 -9 12 -10 -2 -5 -12 3 -15 1 -11 -10 3 -8
0 -21 -7 -29 -11 -13 -9 -19 8 -35 23 -22 42 -26 42 -10 0 6 7 10 15 10 8 0
15 -4 15 -10 0 -5 -4 -10 -10 -10 -5 0 -10 -5 -10 -11 0 -6 7 -9 15 -5 8 3 15
0 15 -6 0 -7 4 -7 14 1 10 8 16 9 21 1 12 -20 25 -10 25 20 0 17 -4 30 -9 30
-6 0 -8 -9 -6 -20 5 -27 -3 -25 -15 2 l-9 23 0 -22 c-1 -13 -6 -23 -12 -23 -7
0 -8 7 -4 17 13 29 11 68 -2 68 -15 0 -19 18 -5 23 6 2 16 -11 23 -28 8 -16
19 -28 26 -26 13 5 48 -30 36 -36 -4 -3 -2 -3 5 -2 6 2 12 -1 12 -6 0 -6 -4
-10 -10 -10 -5 0 -10 -7 -10 -16 0 -12 -11 -15 -55 -12 -30 2 -55 7 -55 12 0
4 -7 5 -16 2 -9 -4 -23 -1 -30 5 -7 6 -18 8 -24 4 -5 -3 -10 -1 -10 4 0 6 6
11 13 11 7 0 5 4 -4 10 -9 5 -20 25 -23 45 -8 39 -22 53 -39 36 -8 -8 -8 -11
0 -11 6 0 16 -20 22 -44 14 -56 32 -74 82 -82 21 -4 39 -10 39 -15 0 -5 7 -9
15 -9 8 0 15 6 15 13 0 8 4 7 10 -3 5 -8 19 -15 32 -15 18 0 24 -8 31 -43 9
-45 30 -63 50 -43 8 8 5 11 -13 11 -17 0 -21 3 -13 11 17 17 59 7 55 -13 -2
-13 4 -18 20 -18 16 0 19 -3 11 -11 -8 -8 2 -24 36 -59 l46 -49 62 2 c43 1 63
6 63 15 0 16 17 16 23 0 4 -10 8 -9 16 2 8 12 14 13 30 3 15 -10 22 -9 31 2 7
8 7 15 1 19 -5 4 -12 2 -15 -2 -3 -5 -18 -7 -33 -4 -28 6 -28 6 7 13 34 7 90
2 100 -10 10 -12 52 -32 45 -22 -8 13 5 14 25 1 12 -8 13 -13 3 -30 -15 -23
-17 -44 -4 -36 5 3 29 -5 54 -19 38 -22 49 -24 73 -15 16 6 36 18 45 26 9 8
22 14 29 12 7 -2 15 3 17 9 7 19 -27 29 -38 12 -8 -12 -9 -12 -8 1 4 24 -12
80 -22 80 -5 0 -9 4 -9 10 0 5 7 7 15 4 8 -4 15 -1 15 5 0 7 19 11 51 10 36
-2 46 -5 35 -11 -9 -5 -21 -6 -28 -2 -7 5 -8 3 -3 -6 6 -10 2 -11 -20 -6 -26
7 -27 6 -14 -10 12 -16 12 -17 -2 -12 -13 5 -15 1 -11 -19 3 -14 7 -21 11 -16
3 5 14 12 24 16 10 4 16 11 12 16 -3 5 -1 12 4 15 15 9 24 -13 12 -28 -6 -7
-7 -17 -3 -21 4 -5 2 -5 -5 -1 -6 3 -14 2 -17 -3 -3 -5 1 -12 10 -15 28 -11
35 -7 24 13 -7 13 -7 22 0 26 5 3 10 2 10 -3 0 -17 41 -22 47 -6 8 22 -4 29
-23 13 -15 -12 -17 -12 -12 0 6 19 54 32 98 26 19 -2 27 -2 18 1 -10 3 -15 11
-11 20 6 17 34 19 31 2 -2 -7 5 -12 15 -10 9 2 17 -2 17 -8 0 -6 4 -9 9 -6 5
3 7 15 4 27 -4 16 -8 17 -14 7 -6 -9 -9 -7 -9 10 0 12 -4 22 -10 22 -5 0 -10
-4 -10 -8 0 -4 -9 -8 -21 -8 -19 0 -19 1 -3 13 18 13 37 17 63 14 7 -2 10 2 7
7 -8 13 12 10 41 -6 17 -9 22 -9 26 2 4 9 14 12 25 9 11 -2 23 0 26 6 4 7 -1
11 -13 11 -12 0 -21 5 -21 12 0 6 3 8 7 5 3 -4 11 1 18 9 15 21 66 28 58 8 -3
-9 -13 -12 -24 -9 -11 4 -19 2 -19 -4 0 -6 8 -11 17 -11 12 0 14 -3 6 -11 -8
-8 -7 -19 1 -41 8 -24 8 -32 -1 -35 -7 -3 -13 -11 -13 -19 0 -8 -5 -14 -11
-14 -5 0 -7 -4 -4 -10 3 -5 0 -7 -9 -4 -8 3 -23 1 -33 -5 -22 -11 -36 -4 -46
22 -4 10 -12 15 -17 12 -8 -5 -7 -12 2 -23 11 -13 11 -14 -2 -7 -17 10 -140
13 -146 4 -2 -4 4 -10 14 -14 14 -7 13 -9 -8 -15 -17 -4 -24 -12 -22 -25 3
-16 1 -17 -11 -6 -10 8 -17 9 -22 1 -8 -13 20 -24 37 -13 7 4 24 8 38 8 17 0
26 6 28 20 3 20 3 20 -12 1 -20 -25 -31 -14 -14 13 14 23 34 27 41 9 4 -10 7
-10 18 0 16 15 30 16 27 2 -2 -6 24 -12 60 -15 38 -3 60 -1 57 5 -3 5 1 7 9 4
10 -4 23 7 38 30 13 20 29 36 36 36 6 0 12 7 12 16 0 10 -6 14 -14 11 -8 -3
-17 1 -20 9 -9 24 -7 31 10 38 12 4 14 1 9 -14 -5 -17 -2 -20 20 -20 21 0 26
4 21 16 -4 11 1 18 14 21 11 3 20 11 20 19 0 20 19 27 35 14 12 -10 15 -9 15
9 0 28 -21 27 -52 -2 -25 -23 -26 -23 -49 -6 -19 15 -20 19 -7 19 9 0 18 4 20
8 4 9 63 52 72 52 3 0 6 -7 6 -15 0 -8 -8 -15 -18 -15 -21 0 -62 -27 -62 -41
0 -6 12 -2 28 9 39 28 92 38 92 18 0 -21 16 -20 24 1 6 14 9 15 15 4 6 -9 13
-10 27 -3 11 6 31 13 47 17 35 7 65 37 72 72 4 16 11 36 17 47 7 14 6 21 -3
27 -11 6 -10 9 4 15 21 8 22 24 1 24 -12 0 -14 7 -8 32 9 41 29 72 60 92 13 9
23 20 23 24 -6 35 29 46 38 12 6 -22 33 -28 33 -7 0 7 13 21 30 30 16 10 34
26 40 37 13 23 5 136 -10 132 -14 -3 -13 11 3 27 10 11 10 14 0 18 -7 3 -13
10 -13 16 0 15 40 41 48 32 4 -3 0 -10 -8 -15 -8 -5 -11 -12 -8 -15 13 -13 30
7 24 28 -3 12 0 27 6 34 12 15 2 47 -12 38 -8 -5 -7 -12 1 -22 11 -12 10 -14
-6 -11 -13 2 -21 -4 -25 -22 -6 -24 -6 -24 -18 -5 -6 11 -12 18 -12 15 -5 -32
-3 -140 2 -140 5 0 8 -5 8 -11 0 -8 -4 -8 -14 0 -10 8 -16 9 -21 1 -3 -5 6
-15 20 -20 19 -7 25 -15 21 -26 -4 -9 -1 -24 6 -33 12 -15 11 -15 -6 -1 -18
14 -19 13 -14 -8 4 -12 2 -20 -3 -16 -5 3 -9 0 -9 -5 0 -6 -6 -11 -14 -11 -8
0 -16 -6 -19 -12 -3 -10 -11 -10 -33 -3 -23 9 -35 7 -61 -8 l-32 -18 5 28 c3
15 11 33 19 39 8 6 12 14 8 17 -3 4 -1 7 5 7 7 0 12 -9 12 -21 0 -12 4 -17 11
-13 6 3 8 15 6 26 -3 11 0 21 9 25 10 4 11 10 4 23 -8 14 -5 19 15 23 19 3 23
1 15 -8 -5 -6 -7 -15 -3 -18 12 -13 21 -7 25 17 4 19 0 25 -18 29 -13 2 -28
-1 -34 -7 -7 -7 -8 0 -4 24 7 37 11 45 22 45 4 1 17 6 29 13 18 10 22 9 27 -6
3 -9 3 -1 1 18 -6 44 7 92 26 98 12 5 12 3 0 -12 -16 -19 -11 -29 11 -21 17 7
13 45 -4 45 -5 0 -6 5 -3 10 4 7 13 7 26 0 24 -13 27 11 4 30 -13 11 -14 10
-9 -6 4 -10 4 -16 -1 -12 -4 4 -14 3 -22 -3 -10 -9 -17 -8 -28 1 -17 14 -21 0
-4 -17 8 -8 8 -17 0 -31 -6 -11 -11 -34 -11 -51 0 -17 -4 -31 -10 -31 -5 0 -7
17 -4 37 10 70 11 113 3 113 -5 0 -9 11 -9 25 0 14 5 25 11 25 6 0 9 7 5 15
-3 8 -1 15 4 15 6 0 10 -4 10 -8 0 -11 67 -32 74 -24 13 13 4 23 -15 17 -18
-6 -20 -4 -14 14 4 13 2 21 -5 21 -6 0 -9 -4 -5 -9 8 -14 -9 -21 -25 -11 -12
7 -12 12 -3 21 7 7 9 18 4 28 -6 10 -4 21 6 30 12 11 14 11 11 -1 -2 -7 2 -15
7 -16 6 -1 11 7 11 18 1 11 -5 20 -13 20 -8 0 -11 5 -8 10 3 6 17 10 29 10 51
0 77 -104 36 -148 -11 -12 -17 -28 -14 -37 7 -18 30 -14 26 5 -2 7 4 20 12 29
32 35 43 113 13 94 -6 -3 -7 -1 -3 6 4 6 0 23 -9 37 -9 13 -13 29 -10 34 9 14
-11 12 -35 -2 -17 -11 -22 -10 -30 2 -13 21 -12 27 5 27 8 0 12 -4 9 -8 -2 -4
1 -11 7 -15 7 -4 9 -3 5 4 -3 6 -2 13 4 17 5 3 10 10 10 16 0 14 -28 11 -33
-3 -8 -27 -42 68 -40 115 1 26 -2 47 -7 47 -18 0 -11 40 8 41 11 0 12 2 4 6
-7 3 -22 -3 -32 -12 -10 -9 -24 -14 -29 -10 -6 3 -11 3 -11 -2 0 -4 14 -14 30
-21 28 -13 41 -32 22 -32 -5 0 -5 -21 0 -47 5 -27 10 -56 11 -65 1 -9 5 -15 8
-12 18 11 18 -17 -1 -36 -25 -25 -25 -29 1 -23 22 6 22 6 -1 -25 -27 -37 -34
-40 -25 -12 4 11 2 20 -4 20 -6 0 -11 11 -11 24 0 20 4 23 21 19 16 -5 20 -2
17 8 -3 8 -9 13 -14 12 -5 -1 -10 11 -10 25 -4 77 -13 127 -23 130 -7 2 -9 -4
-5 -15 3 -10 -2 -5 -11 11 -10 16 -18 39 -20 53 -1 13 -10 32 -20 43 -9 10
-15 25 -12 32 3 8 6 5 6 -7 1 -17 3 -18 12 -5 9 13 10 12 5 -2 -3 -10 -1 -20
4 -23 6 -4 10 3 10 14 0 11 -4 22 -9 25 -16 10 -6 65 14 82 16 12 16 14 3 10
-9 -2 -22 1 -28 9 -6 8 -18 11 -27 8 -11 -4 -14 -2 -11 8 3 8 13 13 23 11 15
-3 16 -2 4 10 -8 8 -22 17 -31 21 -10 3 -18 13 -18 21 0 8 -4 16 -9 18 -4 2
-11 21 -14 43 l-6 40 11 -35 c15 -45 15 -45 32 -31 10 9 16 9 21 1 4 -6 13 -9
20 -6 9 3 15 -4 18 -17 3 -21 4 -21 12 -3 6 13 3 22 -8 31 -10 7 -17 17 -17
22 0 15 -29 37 -37 29 -4 -3 2 -13 13 -21 18 -14 17 -15 -11 -12 -26 4 -30 8
-27 31 2 19 -2 26 -15 27 -11 0 -13 3 -5 6 14 5 17 33 3 33 -5 0 -11 17 -14
38 -9 53 -26 72 -77 83 -24 6 -48 15 -53 22 -7 9 -10 9 -14 0 -7 -18 -23 -16
-23 2 0 19 -16 20 -23 1 -4 -9 1 -17 11 -19 12 -3 11 -5 -5 -6 -13 0 -23 -5
-23 -11 0 -6 9 -6 26 0 32 12 101 -5 127 -32 10 -10 22 -16 27 -13 4 3 7 -9 6
-25 -1 -17 0 -30 3 -30 4 0 8 -25 9 -56 3 -56 3 -56 -22 -50 -17 4 -26 2 -26
-5 0 -7 -8 -5 -19 5 -11 10 -18 23 -15 29 2 7 -10 18 -26 26 -17 7 -30 17 -28
23 4 12 24 9 20 -3 -5 -19 32 -22 64 -4 33 18 45 35 24 35 -5 0 -10 -4 -10
-10 0 -5 -4 -10 -10 -10 -5 0 -10 7 -10 15 0 8 5 15 10 15 16 0 12 19 -10 42
-16 17 -22 19 -35 8 -8 -7 -22 -10 -30 -6 -13 4 -14 2 -5 -14 13 -24 30 -26
30 -5 0 8 7 15 16 15 8 0 13 -4 10 -9 -4 -5 0 -12 6 -15 10 -3 8 -8 -4 -16 -9
-6 -15 -17 -12 -24 3 -8 1 -17 -5 -20 -5 -4 -12 3 -16 14 -3 11 -13 20 -22 20
-8 0 -13 6 -10 13 2 6 0 20 -5 30 -5 11 -4 25 3 40 11 19 10 20 -3 9 -9 -7
-24 -9 -33 -5 -14 5 -17 3 -13 -9 6 -15 -8 -38 -23 -38 -4 0 -12 14 -18 30 -5
17 -17 30 -25 30 -9 0 -16 5 -16 11 0 6 7 8 16 5 9 -3 20 -6 25 -6 6 0 7 -4 4
-10 -3 -5 -1 -10 4 -10 10 0 16 32 11 55 -1 6 -2 20 -2 32 -1 26 -15 33 -45
22 -26 -9 -31 -39 -8 -39 8 0 15 -4 15 -10 0 -5 10 -10 22 -10 15 0 19 -3 12
-10 -12 -12 -44 -3 -44 11 0 5 -7 9 -16 9 -10 0 -14 -6 -10 -15 3 -8 1 -15 -4
-15 -6 0 -10 5 -10 11 0 6 -7 8 -16 5 -8 -3 -12 -2 -9 4 3 6 -1 7 -9 4 -9 -3
-16 -2 -16 4 0 5 13 9 29 8 26 -2 28 0 20 17 -10 18 -11 18 -24 0 -8 -10 -15
-13 -16 -8 -5 26 -7 31 -15 52 l-9 23 -13 -21 c-8 -12 -9 -19 -4 -15 5 3 14
-6 20 -19 6 -13 8 -26 3 -29 -11 -7 -51 5 -51 16 0 5 -4 7 -8 4 -4 -2 -14 -1
-22 4 -11 7 -7 10 13 15 30 8 33 14 15 35 -11 12 -10 12 3 2 17 -13 30 -5 42
28 4 12 6 11 6 -2 1 -20 9 -22 29 -9 10 6 2 20 -30 54 l-43 47 -67 -2 c-69 -2
-79 -7 -55 -27 10 -8 17 -7 25 1 8 8 12 8 12 2 0 -12 -43 -34 -67 -34 -13 0
-14 -3 -6 -11 6 -6 9 -18 6 -25 -3 -8 0 -14 6 -14 6 0 11 7 11 16 0 8 4 13 9
9 5 -3 12 3 15 12 2 10 4 6 3 -9 -1 -14 7 -35 17 -47 20 -22 7 -30 -16 -8 -7
6 -19 12 -25 13 -38 3 -43 5 -43 18 0 8 6 17 13 19 7 3 5 6 -5 6 -22 1 -23 17
-2 29 10 6 -5 8 -45 6 -43 -2 -65 1 -75 11 -8 8 -19 15 -24 15 -5 0 -16 7 -23
17 -13 15 -12 15 9 4 13 -7 26 -10 30 -7 3 3 0 6 -6 6 -7 0 -11 6 -9 13 1 7
-7 11 -20 9 -17 -2 -21 1 -17 12 4 11 0 16 -12 16 -11 0 -32 9 -49 20 -37 25
-60 25 -105 1z m101 -19 c9 -54 7 -63 -12 -57 -21 7 -28 -20 -6 -28 9 -4 9 -7
0 -17 -10 -11 -13 -10 -18 3 -6 14 -8 14 -25 -1 -11 -8 -17 -19 -15 -22 2 -4
-2 -7 -10 -7 -8 0 -15 5 -15 11 0 6 -5 5 -12 -2 -15 -15 -78 -16 -78 -1 0 6 7
8 16 5 8 -3 12 -2 9 4 -9 14 9 12 24 -2 11 -11 12 -9 6 11 -5 16 -4 21 4 17 8
-5 9 3 6 27 -3 20 -2 38 3 41 6 3 9 -14 8 -39 -1 -29 3 -46 12 -50 19 -7 19
-7 26 15 8 26 5 36 -11 32 -13 -3 -19 48 -8 60 8 7 95 7 96 0z m81 -69 c13
-16 31 -29 39 -31 7 -2 19 -8 24 -14 7 -8 5 -9 -6 -5 -9 3 -22 0 -29 -6 -10
-9 -11 -9 -6 1 4 6 3 12 -3 12 -5 0 -11 -3 -14 -7 -2 -5 -2 -2 -1 5 2 6 -1 12
-7 12 -6 0 -7 5 -4 10 3 6 -2 13 -12 17 -10 4 -21 11 -25 17 -5 7 -8 4 -8 -6
0 -9 4 -19 10 -23 5 -3 7 -12 3 -20 -4 -11 -1 -13 11 -9 9 3 16 1 16 -5 0 -6
-11 -11 -25 -11 -14 0 -25 5 -25 10 0 7 -7 7 -22 0 -18 -9 -16 -5 7 16 17 14
25 23 18 20 -6 -4 -15 -1 -19 5 -4 8 -3 9 4 5 11 -7 16 7 15 41 -1 18 29 0 59
-34z m-511 -30 c11 -28 1 -53 -12 -32 -7 11 -9 10 -9 -5 0 -13 5 -17 19 -13
14 3 17 0 13 -15 -3 -13 -10 -17 -23 -13 -12 4 -21 1 -25 -9 -9 -22 -26 -8
-19 15 4 12 2 19 -7 19 -22 0 -41 -17 -34 -29 4 -6 2 -11 -3 -11 -14 0 -14 27
-1 35 8 5 7 11 -1 21 -16 19 -4 44 21 44 11 0 23 6 26 14 8 21 44 7 55 -21z
m815 28 c-3 -5 8 -14 24 -20 32 -11 33 -13 24 -49 -5 -17 -11 -21 -26 -16 -17
5 -19 2 -14 -14 10 -29 -12 -38 -23 -10 -6 13 -10 17 -10 10 -1 -7 -7 -10 -13
-7 -7 4 -5 0 5 -8 21 -18 22 -27 0 -27 -9 0 -13 3 -10 7 4 3 3 11 -2 17 -4 6
-11 18 -14 27 -4 13 -1 16 15 11 15 -3 19 -1 16 9 -3 8 -12 13 -22 11 -9 -2
-16 2 -16 8 0 5 5 10 10 10 6 0 10 7 10 15 0 9 10 20 23 25 29 12 29 12 23 1z
m-770 -56 c9 -8 12 -19 9 -25 -3 -5 -1 -10 4 -10 6 0 11 5 11 11 0 5 4 8 10 4
5 -3 18 3 30 15 22 22 45 26 55 10 3 -5 -3 -10 -15 -10 -12 0 -18 -4 -15 -10
5 -8 -4 -11 -30 -10 -3 1 -13 -6 -21 -15 -9 -9 -24 -13 -34 -10 -11 3 -20 -1
-24 -10 -7 -19 7 -16 96 21 53 22 69 24 261 24 l204 0 119 -49 c66 -27 148
-61 184 -76 55 -23 84 -45 193 -153 70 -70 133 -126 140 -124 6 2 9 0 5 -4 -4
-3 1 -17 11 -30 10 -13 33 -61 51 -106 17 -46 35 -90 40 -99 15 -29 77 -184
83 -206 3 -13 1 -25 -3 -28 -14 -9 -3 -105 14 -124 19 -21 20 -37 5 -47 -7 -4
-9 0 -5 14 4 11 2 23 -4 27 -5 3 -10 3 -10 -2 0 -4 -3 -41 -6 -82 -3 -48 -1
-77 6 -81 8 -5 6 -20 -4 -50 -8 -24 -12 -48 -9 -53 3 -6 2 -7 -4 -4 -5 3 -15
-11 -23 -31 -7 -20 -21 -55 -30 -77 -61 -141 -70 -166 -64 -177 4 -7 3 -8 -4
-4 -7 4 -12 0 -12 -10 0 -9 -57 -75 -127 -146 -71 -71 -126 -135 -125 -141 2
-7 0 -9 -4 -5 -3 4 -18 -2 -32 -12 -13 -11 -31 -20 -39 -20 -8 0 -11 -5 -7
-12 4 -7 3 -8 -4 -4 -11 6 -36 -3 -177 -64 -22 -9 -57 -23 -77 -30 -20 -8 -35
-16 -33 -20 2 -3 -4 -6 -13 -7 -30 -3 -257 -13 -267 -12 -5 0 -48 2 -95 4 -68
2 -101 9 -164 35 -44 18 -87 36 -95 40 -9 5 -57 25 -107 45 -87 35 -95 41
-214 160 -68 68 -128 121 -134 118 -6 -3 -8 -2 -3 2 4 5 -1 18 -11 29 -17 20
-81 164 -133 298 -12 32 -25 55 -29 53 -4 -3 -8 96 -9 218 l-1 223 59 145 c32
79 69 167 81 194 16 37 58 86 158 188 l137 137 112 47 c62 26 111 49 108 51
-2 3 2 17 11 33 8 17 10 29 4 29 -5 0 -10 7 -10 15 0 19 7 19 26 0z m608 -1
c10 -25 6 -41 -5 -21 -5 9 -22 17 -37 17 -21 0 -24 2 -12 10 23 15 47 12 54
-6z m-820 -78 c-3 -9 -10 -13 -16 -10 -5 3 -4 12 3 20 15 18 22 13 13 -10z
m1190 -37 c-4 -6 -11 -6 -20 2 -21 17 -17 31 6 19 11 -6 18 -15 14 -21z
m-1166 -20 c-7 -4 -16 -6 -20 -3 -4 3 -25 -7 -45 -21 -40 -27 -53 -31 -53 -16
0 5 13 14 29 19 17 6 35 19 42 30 10 17 17 18 36 9 17 -7 20 -13 11 -18z
m-206 -56 c10 -9 18 -23 18 -32 -1 -14 -2 -14 -11 1 -9 16 -11 16 -29 1 -19
-16 -18 -33 1 -33 6 0 7 6 3 13 -5 8 -2 8 9 -2 23 -18 21 -31 -4 -31 -11 0
-18 -4 -15 -8 2 -4 1 -13 -3 -20 -5 -9 -12 -8 -27 4 -10 8 -13 13 -6 9 14 -7
17 11 3 20 -6 3 -14 -3 -20 -12 -9 -17 -11 -17 -25 2 -21 28 -20 44 7 66 20
17 20 18 2 12 -11 -3 -17 -3 -13 1 3 4 21 10 40 13 18 3 35 7 37 9 7 7 14 4
33 -13z m78 -38 c-13 -14 -30 -25 -37 -25 -8 0 -11 -4 -8 -10 3 -5 1 -10 -5
-10 -8 0 -10 9 -5 27 8 32 23 45 48 39 9 -2 17 1 17 7 0 6 3 7 7 4 3 -4 -4
-18 -17 -32z m1365 -7 c1 -12 6 -31 10 -40 5 -12 3 -18 -6 -18 -7 0 -10 3 -6
6 7 8 -17 34 -32 34 -15 0 -14 7 6 30 19 22 23 21 28 -12z m-1441 -57 c3 -5
-1 -14 -8 -20 -12 -10 -14 -9 -11 6 2 10 4 19 4 21 2 5 10 2 15 -7z m-34 -42
c0 -5 -4 -7 -10 -4 -5 3 -10 0 -10 -8 0 -15 -36 -50 -62 -59 -8 -4 -22 -20
-29 -37 -8 -17 -17 -31 -22 -31 -4 0 -7 -6 -6 -12 4 -34 -2 -42 -15 -19 -12
22 -12 27 9 43 13 10 26 29 29 43 4 16 13 25 26 25 19 0 24 10 21 38 -1 7 8
16 21 22 31 12 48 12 48 -1z m1642 -84 c3 -14 4 -25 3 -25 -2 0 -10 11 -19 25
-13 20 -14 25 -2 25 7 0 16 -11 18 -25z m37 -48 c15 -19 2 -29 -15 -12 -8 7
-14 16 -14 19 0 11 17 6 29 -7z m17 -74 c-7 -16 6 -17 23 0 11 10 13 9 7 -6
-3 -10 -6 -27 -6 -38 0 -10 -5 -19 -11 -19 -5 0 -7 5 -4 11 4 6 -1 16 -10 23
-10 7 -19 25 -20 40 -3 23 -1 25 11 15 8 -7 13 -18 10 -26z m-1945 -226 c-6
-8 -7 -18 -3 -22 4 -5 1 -5 -5 -1 -9 5 -13 0 -14 -16 l0 -23 -10 24 c-7 18 -5
26 8 37 23 17 39 18 24 1z m-28 -84 c-7 -3 -9 -11 -6 -19 3 -8 -1 -14 -11 -14
-19 0 -20 4 -4 29 7 11 17 17 22 14 6 -4 6 -8 -1 -10z m-175 -40 c-2 -17 -9
-28 -18 -28 -9 0 -16 11 -18 28 -3 22 1 27 18 27 17 0 21 -5 18 -27z m138 -75
c5 -8 -2 -9 -24 -5 -19 4 -32 2 -32 -3 0 -6 7 -10 15 -10 9 0 15 -7 13 -16 -2
-10 3 -19 11 -22 10 -3 12 1 9 16 -5 18 -3 19 12 9 14 -8 16 -15 9 -28 -6 -12
-5 -20 2 -25 8 -4 7 -10 -1 -18 -9 -8 -14 -8 -17 2 -8 21 -35 15 -28 -7 4 -15
0 -18 -19 -18 -14 0 -33 8 -42 18 -11 13 -13 19 -5 19 9 0 11 9 6 30 -5 22 -3
32 9 36 9 3 16 12 16 20 0 17 56 19 66 2z m44 -70 c0 -23 -3 -29 -9 -19 -8 12
-4 51 5 51 2 0 4 -15 4 -32z m-2 -78 c3 -44 -2 -48 -29 -24 -17 15 -17 18 -2
40 21 33 28 30 31 -16z m-43 9 c-4 -5 -14 -9 -23 -9 -10 0 -13 -3 -6 -8 6 -4
13 -15 17 -25 4 -10 11 -15 17 -12 5 3 10 -1 10 -9 0 -25 -15 -19 -49 19 -34
40 -38 47 -17 39 8 -3 20 1 27 9 15 16 34 12 24 -4z m45 -72 c0 -7 -5 -18 -12
-25 -9 -9 -9 -12 1 -12 7 0 9 -5 6 -11 -5 -6 -12 -4 -20 8 -12 15 -12 20 0 29
8 6 12 14 8 17 -3 4 -1 7 5 7 7 0 12 -6 12 -13z m45 -167 c3 -11 3 -24 0 -30
-3 -5 -2 -10 3 -10 5 0 14 -12 21 -27 9 -20 9 -29 0 -37 -9 -8 -10 -7 -6 6 6
17 -36 68 -56 68 -4 0 -5 5 -2 10 4 6 11 8 16 5 5 -4 9 -1 9 4 0 6 -4 11 -10
11 -5 0 -10 5 -10 10 0 18 29 10 35 -10z m69 -225 c-24 -18 -35 -19 -28 -2 2
7 14 13 25 14 21 2 21 1 3 -12z m1865 -14 c-15 -5 -22 6 -14 19 6 9 10 9 16
-1 5 -8 4 -15 -2 -18z m-1829 -36 c0 -3 -9 -1 -20 5 -11 6 -20 18 -20 27 0 14
3 13 20 -5 11 -12 20 -24 20 -27z m1786 2 c-14 -14 -26 -35 -26 -45 0 -22 -27
-25 -34 -5 -3 8 -2 11 3 8 6 -3 18 8 27 25 10 16 22 30 26 30 4 0 8 8 8 17 0
12 3 14 11 6 7 -7 3 -18 -15 -36z m-1827 -41 c8 -9 8 -16 2 -20 -6 -4 -15 3
-21 14 -12 23 2 27 19 6z m139 -65 c2 -12 8 -19 13 -16 5 4 9 1 9 -5 0 -6 5
-8 10 -5 6 3 10 1 10 -5 0 -8 -7 -9 -17 -5 -10 4 -27 9 -38 10 -11 2 -23 4
-26 4 -3 1 -6 17 -6 36 0 33 1 35 21 21 12 -7 22 -23 24 -35z m1622 39 c0 -5
7 -10 16 -10 16 0 16 -24 1 -120 -1 -9 -12 -29 -25 -44 -20 -26 -34 -32 -80
-35 -7 -1 -11 -4 -9 -8 3 -5 -15 -6 -40 -4 -41 3 -45 5 -40 27 2 13 0 24 -4
24 -5 0 -9 -5 -9 -12 0 -6 -3 -8 -7 -5 -8 9 37 58 48 52 4 -3 10 4 14 15 7 22
20 26 30 10 5 -8 11 -7 21 1 11 9 12 15 3 26 -7 7 -9 16 -5 20 3 3 6 1 6 -5 0
-7 7 -12 15 -12 9 0 15 -7 13 -16 -2 -10 3 -19 10 -21 9 -4 12 3 9 24 -3 19
-9 27 -21 25 -9 -2 -16 2 -16 8 0 5 5 10 12 10 6 0 8 3 5 7 -4 3 3 17 15 30
23 24 38 30 38 13z m-1600 -100 c0 -11 3 -19 8 -19 20 3 33 -2 27 -12 -4 -5
-12 -8 -18 -6 -7 2 -17 -3 -23 -12 -10 -13 -13 -13 -28 1 -20 21 -20 28 -1 28
8 0 15 9 15 20 0 11 5 20 10 20 6 0 10 -9 10 -20z m144 -105 c-4 -9 0 -15 10
-15 9 0 16 -4 16 -9 0 -5 -10 -6 -22 -3 -20 5 -21 4 -8 -9 8 -8 23 -18 34 -22
14 -5 17 -4 12 8 -7 19 1 19 20 0 14 -14 11 -19 -8 -16 -15 2 -8 -27 8 -33 8
-3 12 -2 9 3 -8 15 15 25 28 12 8 -8 7 -11 -3 -11 -10 0 -10 -4 2 -17 9 -10
13 -25 11 -33 -2 -8 4 -5 14 8 12 14 25 21 35 17 9 -4 19 -1 23 6 6 8 -1 10
-24 7 -18 -3 -34 -1 -37 4 -3 4 2 8 11 8 9 0 14 4 10 10 -3 5 -12 7 -19 4 -7
-3 -19 2 -26 11 -12 14 -10 15 16 11 16 -3 34 -13 41 -22 6 -9 16 -13 22 -9 6
3 11 2 11 -4 0 -6 7 -8 15 -5 8 3 28 -4 45 -16 16 -12 33 -19 37 -17 5 3 24
-4 43 -15 19 -10 27 -17 18 -14 -10 3 -20 1 -23 -4 -4 -6 6 -10 22 -11 30 -1
52 -4 91 -14 13 -3 38 0 56 6 20 7 41 9 52 4 11 -4 26 -7 34 -6 8 1 2 -10 -15
-24 -16 -15 -24 -23 -16 -19 11 6 13 1 8 -24 -4 -19 -2 -32 3 -32 6 0 10 9 10
19 0 14 5 18 20 14 11 -3 20 0 20 6 0 6 -9 11 -21 11 -19 0 -19 1 -5 16 9 8
16 19 16 24 0 5 7 6 17 3 11 -4 14 -3 9 5 -5 8 -2 10 8 6 19 -7 11 -24 -10
-24 -8 0 -12 -5 -9 -10 5 -8 12 -7 22 1 12 10 16 10 23 -1 10 -16 3 -33 -11
-25 -5 4 -9 1 -9 -6 0 -6 8 -9 19 -6 16 4 19 0 18 -27 -2 -29 -5 -31 -44 -34
-47 -3 -91 19 -93 46 -2 44 -5 72 -7 72 -2 0 -12 -9 -24 -21 -20 -20 -21 -20
-47 -3 -28 19 -112 36 -112 24 0 -4 -8 -10 -17 -13 -10 -2 -26 -8 -35 -12 -13
-5 -18 -2 -18 9 0 10 9 16 24 16 22 0 23 2 13 25 -13 26 -30 35 -21 10 4 -8 2
-15 -4 -15 -6 0 -15 -14 -21 -31 -7 -20 -16 -29 -25 -26 -7 3 -19 0 -25 -6 -8
-8 -14 -8 -23 1 -16 16 -31 15 -22 0 3 -7 -10 4 -29 25 -19 21 -41 52 -47 68
-7 16 -16 26 -21 24 -4 -3 -18 8 -30 25 -24 32 -42 40 -33 15 4 -9 0 -15 -9
-15 -24 0 -30 18 -10 29 15 8 16 10 3 15 -8 2 -28 9 -45 15 -29 11 -29 11 -2
6 22 -4 27 -2 27 14 0 16 6 22 27 30 1 1 0 -6 -3 -14z m1166 -90 c0 -9 6 -12
15 -9 21 8 19 1 -5 -21 -18 -16 -20 -17 -14 -2 4 11 0 19 -10 23 -9 3 -13 10
-10 15 8 14 24 10 24 -6z m-280 -96 c0 -5 -17 -9 -38 -9 -21 0 -43 -5 -49 -11
-7 -7 -17 -8 -25 -3 -9 6 -1 12 27 20 48 13 85 15 85 3z"/>
<path d="M1475 2641 c-12 -11 -2 -16 30 -17 21 -1 34 3 32 9 -3 10 -54 17 -62
8z"/>
<path d="M1063 2556 c-13 -6 -23 -18 -23 -26 0 -13 1 -13 10 0 5 8 12 11 16 8
6 -7 34 15 34 26 0 8 -11 6 -37 -8z"/>
<path d="M1905 2561 c-3 -6 1 -11 9 -11 9 0 16 -4 16 -8 0 -4 9 -8 20 -9 25
-2 26 12 3 21 -10 3 -23 8 -30 12 -6 3 -14 0 -18 -5z"/>
<path d="M1375 2490 c-224 -30 -418 -129 -585 -299 -166 -169 -253 -356 -281
-598 -27 -247 55 -522 218 -722 128 -159 304 -275 508 -338 83 -25 104 -27
265 -27 153 -1 185 2 254 22 180 52 312 127 440 251 134 130 220 271 271 446
33 111 45 311 26 430 -86 530 -586 904 -1116 835z m275 -25 c223 -34 413 -134
568 -301 132 -141 223 -323 252 -506 20 -121 8 -322 -24 -431 -81 -273 -268
-493 -522 -614 -155 -73 -221 -87 -424 -87 -162 0 -182 2 -263 27 -347 107
-594 362 -684 707 -20 76 -25 121 -26 225 -1 72 5 157 12 190 78 372 327 649
681 759 146 46 275 55 430 31z"/>
<path d="M860 1885 c-11 -26 -39 -112 -62 -191 -22 -79 -44 -141 -48 -139 -4
2 -10 39 -14 82 -8 97 -19 138 -36 138 -18 0 -35 -53 -55 -171 -9 -55 -19
-101 -21 -103 -2 -3 -1 79 2 182 5 139 4 187 -4 187 -9 0 -12 -59 -12 -215 0
-126 4 -215 9 -215 12 0 16 13 41 150 11 63 24 129 29 145 l8 30 6 -30 c4 -16
11 -70 17 -119 5 -49 12 -91 14 -94 3 -3 12 0 19 7 13 10 33 66 92 265 14 48
28 86 29 85 2 -2 -7 -96 -20 -209 -27 -236 -31 -374 -11 -368 6 3 34 54 62
116 38 84 53 108 62 100 7 -6 21 -7 30 -3 24 11 83 12 83 3 0 -19 17 -5 29 25
l14 32 6 -30 c5 -24 11 -30 33 -30 21 -1 30 6 39 27 15 37 34 49 26 17 -3 -13
-2 -31 3 -39 7 -12 12 -11 29 4 12 11 21 24 21 30 0 6 -7 3 -14 -6 -19 -26
-29 -22 -22 7 7 28 -17 46 -36 27 -6 -6 -17 -8 -25 -5 -9 4 -14 0 -13 -8 4
-25 0 -39 -10 -39 -5 0 -10 14 -10 30 0 29 -21 42 -35 20 -3 -5 -11 -7 -18 -4
-7 2 -17 -5 -22 -17 -14 -30 -29 -29 -35 1 -4 19 -11 25 -28 24 -36 -2 -61
-33 -114 -142 -27 -57 -51 -102 -53 -100 -2 3 8 110 40 412 18 177 11 215 -25
131z m150 -335 c-12 -23 -30 -27 -30 -7 0 17 10 27 27 27 11 0 11 -5 3 -20z"/>
<path d="M1607 1923 c-16 -15 -37 -76 -78 -218 -22 -77 -44 -144 -49 -148 -4
-5 -11 27 -14 70 -9 93 -23 153 -37 153 -17 0 -39 -65 -59 -178 l-20 -107 5
188 c3 103 1 187 -4 187 -20 0 -31 -413 -10 -425 6 -4 12 -5 15 -3 2 2 16 69
30 149 25 135 42 197 44 159 1 -8 7 -62 13 -119 19 -165 37 -149 107 92 24 81
45 145 47 143 3 -2 -5 -91 -16 -198 -27 -246 -31 -363 -12 -363 7 0 34 46 60
105 37 81 51 104 65 102 10 -2 23 1 29 6 13 9 68 9 84 -1 6 -4 16 7 24 26 12
31 12 31 16 7 6 -34 20 -47 35 -32 9 9 9 12 0 12 -7 0 -12 13 -12 30 0 29 -21
42 -35 20 -3 -5 -11 -7 -18 -4 -7 2 -17 -5 -22 -17 -13 -29 -29 -28 -35 2 -5
27 -38 32 -64 10 -14 -12 -83 -146 -106 -205 -6 -16 -13 -26 -16 -23 -3 2 7
115 21 251 25 237 29 347 12 329z m133 -362 c0 -11 -29 -35 -35 -29 -10 9 7
38 21 38 8 0 14 -4 14 -9z"/>
<path d="M1960 1780 c-11 -11 -22 -31 -26 -45 -7 -27 -1 -96 11 -132 6 -18 4
-23 -11 -23 -27 0 -49 -37 -33 -56 15 -18 39 -17 63 1 17 13 22 13 35 1 21
-19 91 -17 114 2 11 10 17 11 17 4 0 -15 37 -16 46 -1 4 8 13 4 25 -12 16 -21
21 -22 38 -12 11 7 28 10 37 6 11 -4 22 1 30 12 8 10 14 13 14 7 0 -20 48 -14
60 8 6 11 7 20 1 20 -5 0 -11 -7 -15 -15 -9 -26 -26 -17 -26 14 0 31 -1 31
-63 22 -4 0 -13 -14 -18 -30 -6 -16 -17 -32 -25 -35 -23 -9 -29 41 -11 93 33
94 33 181 1 181 -23 0 -34 -45 -34 -144 0 -70 -4 -97 -15 -106 -20 -17 -36 -3
-29 26 6 22 4 24 -27 20 -29 -3 -59 -27 -59 -47 0 -14 -40 -17 -50 -4 -9 10
-4 24 16 55 20 30 29 58 32 100 4 53 2 61 -21 84 -31 31 -50 33 -77 6z m70
-26 c6 -14 10 -39 10 -55 0 -38 -39 -131 -53 -126 -33 11 -49 157 -20 189 23
26 52 23 63 -8z m198 -52 c-3 -38 -10 -77 -15 -87 -10 -18 -9 46 3 123 9 58
17 34 12 -36z m-271 -149 c3 -7 -5 -17 -16 -23 -18 -9 -21 -8 -21 8 0 32 28
43 37 15z m159 1 c-3 -9 -6 -18 -6 -20 0 -2 -7 -4 -15 -4 -13 0 -14 4 -5 20
13 24 35 27 26 4z m194 9 c0 -5 -4 -15 -10 -23 -11 -18 -25 -7 -17 15 6 15 27
21 27 8z"/>
<path d="M897 1178 c57 -110 183 -232 293 -286 115 -57 194 -75 315 -75 255 0
473 131 602 361 19 35 33 66 29 69 -8 8 -6 11 -51 -72 -49 -89 -168 -210 -255
-257 -328 -181 -734 -66 -911 258 -23 41 -45 74 -51 74 -5 0 8 -33 29 -72z"/>
<path d="M958 859 l-27 -29 24 -16 c25 -17 45 -12 45 11 0 7 6 15 13 18 9 3 9
9 1 23 -15 26 -26 25 -56 -7z m52 1 c0 -5 -7 -10 -15 -10 -8 0 -12 -6 -9 -14
7 -17 -12 -31 -21 -16 -4 6 1 20 11 31 19 21 34 25 34 9z"/>
<path d="M1907 824 c-7 -7 35 -74 46 -74 11 0 9 7 -17 44 -13 19 -26 33 -29
30z"/>
<path d="M1090 775 c0 -19 -5 -35 -11 -35 -5 0 -7 -4 -4 -10 9 -15 25 -12 25
5 0 9 14 22 31 29 23 10 28 16 18 21 -7 5 -14 4 -17 -3 -6 -19 -22 -14 -22 8
0 11 -4 20 -10 20 -5 0 -10 -16 -10 -35z"/>
<path d="M1798 759 c-23 -13 -11 -39 18 -39 15 0 24 -6 24 -16 0 -11 -6 -14
-22 -9 -19 6 -21 5 -10 -6 9 -10 17 -11 30 -3 26 17 20 39 -11 42 -17 2 -26 8
-24 15 3 7 10 11 16 10 6 -2 11 2 11 7 0 12 -10 12 -32 -1z"/>
<path d="M1688 725 c-4 -4 -3 -18 2 -31 11 -29 0 -31 -25 -4 -26 29 -34 25
-25 -14 4 -19 5 -37 2 -40 -3 -4 2 -6 12 -6 14 0 15 4 6 21 -16 29 -7 33 23 8
25 -19 27 -19 26 -2 -3 36 -14 75 -21 68z"/>
<path d="M1323 698 c0 -8 -3 -26 -7 -41 -4 -16 -2 -27 4 -27 5 0 11 12 11 28
1 20 3 22 6 7 10 -48 14 -51 29 -22 18 33 26 35 18 3 -3 -13 -1 -27 4 -30 6
-3 11 13 14 39 4 52 -2 56 -28 18 l-18 -28 -6 29 c-5 29 -27 48 -27 24z"/>
<path d="M1506 666 c-3 -13 -9 -31 -12 -40 -3 -9 -1 -16 6 -16 6 0 8 5 5 10
-3 6 3 10 15 10 12 0 18 -4 15 -10 -3 -5 0 -10 9 -10 12 0 12 5 -1 40 -18 46
-28 50 -37 16z"/>
<path d="M693 2306 c-30 -31 -17 -41 13 -11 13 13 24 27 24 30 0 11 -16 3 -37
-19z"/>
<path d="M360 1495 c0 -19 4 -35 9 -35 5 0 8 16 8 35 -1 19 -5 35 -9 35 -4 0
-8 -16 -8 -35z"/>
<path d="M2338 808 c-15 -22 -15 -25 0 -36 15 -11 14 -12 -6 -6 -23 6 -23 5
-5 -15 16 -20 18 -20 24 -4 4 10 3 23 -2 29 -5 6 -4 15 2 21 6 6 9 17 7 23 -2
8 -10 3 -20 -12z"/>
<path d="M2221 733 c0 -6 -3 -18 -6 -26 -4 -10 3 -14 25 -15 20 0 30 4 27 11
-2 7 -11 11 -20 9 -8 -1 -18 5 -20 15 -3 10 -5 13 -6 6z"/>
<path d="M2297 699 c-10 -11 -16 -23 -13 -27 7 -6 46 27 46 40 0 14 -15 9 -33
-13z"/>
<path d="M2179 698 c-1 -2 -2 -15 -3 -30 -3 -29 11 -37 31 -17 7 7 13 7 17 1
6 -11 46 -5 46 7 0 3 -9 12 -21 19 -19 12 -20 11 -14 -10 6 -22 5 -22 -9 -5
-9 12 -16 14 -21 8 -11 -19 -23 -12 -18 9 3 11 3 20 -1 20 -3 0 -6 -1 -7 -2z"/>
<path d="M1084 524 c3 -9 6 -17 6 -19 0 -2 9 -1 20 2 14 4 20 0 20 -11 0 -9 8
-16 17 -16 13 0 10 7 -12 30 -31 32 -61 41 -51 14z"/>
<path d="M1016 501 c-9 -10 -13 -21 -9 -24 11 -12 23 -7 23 9 0 13 3 14 13 5
13 -10 27 -6 27 10 0 16 -40 16 -54 0z"/>
<path d="M1100 475 c0 -8 7 -15 16 -15 11 0 14 -6 9 -21 -5 -15 -4 -19 4 -15
15 9 14 39 -1 54 -16 16 -28 15 -28 -3z"/>
<path d="M1040 453 c0 -9 6 -13 15 -9 8 3 15 1 15 -4 0 -6 7 -10 15 -10 26 0
16 18 -15 29 -25 8 -30 7 -30 -6z"/>
<path d="M1366 447 c-16 -12 -16 -13 3 -13 12 0 21 6 21 13 0 7 -1 13 -3 13
-2 0 -11 -6 -21 -13z"/>
<path d="M1470 364 c0 -8 12 -12 30 -12 30 1 54 17 28 19 -7 0 -23 2 -35 3
-13 2 -23 -3 -23 -10z"/>
<path d="M1288 2646 c-11 -11 -18 -12 -26 -4 -14 14 -45 -9 -35 -25 4 -6 11
-4 18 7 12 15 13 15 18 -4 4 -14 10 -18 23 -13 13 5 16 3 11 -10 -8 -21 11
-22 37 -2 15 11 16 15 5 15 -8 0 -24 7 -35 16 -18 15 -18 15 5 8 17 -4 22 -2
19 7 -6 19 -24 22 -40 5z"/>
<path d="M1679 2644 c-12 -15 -11 -16 9 -10 26 9 29 -2 5 -20 -21 -15 -11 -28
27 -37 33 -8 52 4 39 23 -8 11 -12 12 -16 3 -6 -15 -43 -17 -43 -3 0 6 9 10
19 10 31 0 33 16 6 34 -30 20 -29 20 -46 0z"/>
<path d="M1754 2634 c3 -8 6 -18 6 -20 0 -2 5 -4 10 -4 16 0 11 27 -6 34 -12
5 -15 2 -10 -10z"/>
<path d="M1243 2595 c-10 -11 -9 -15 8 -20 27 -9 37 2 18 19 -12 12 -16 12
-26 1z"/>
<path d="M1795 2599 c-8 -13 -7 -15 25 -24 25 -8 25 -8 6 14 -22 24 -23 25
-31 10z"/>
<path d="M866 2478 c-19 -27 -21 -78 -3 -78 6 0 23 9 36 19 24 18 22 41 -4 41
-8 0 -17 5 -21 11 -4 8 1 9 16 4 16 -5 21 -3 18 6 -7 22 -25 21 -42 -3z m32
-40 c-3 -7 -13 -15 -24 -17 -16 -3 -17 -1 -5 13 16 19 34 21 29 4z"/>
<path d="M2030 2489 c0 -5 5 -9 11 -9 5 0 7 -6 3 -12 -4 -7 -4 -10 1 -6 4 4
13 4 19 -1 7 -6 11 -2 12 14 1 17 -4 23 -22 23 -13 0 -24 -4 -24 -9z"/>
<path d="M2107 2493 c-13 -13 -7 -21 13 -16 11 3 17 9 14 14 -6 11 -18 12 -27
2z"/>
<path d="M815 2450 c-3 -5 -3 -15 1 -21 6 -11 23 6 24 24 0 10 -18 9 -25 -3z"/>
<path d="M2170 2440 c0 -11 5 -20 10 -20 6 0 10 9 10 20 0 11 -4 20 -10 20 -5
0 -10 -9 -10 -20z"/>
<path d="M2240 2335 c0 -9 6 -12 15 -9 8 4 15 10 15 15 0 5 -7 9 -15 9 -8 0
-15 -7 -15 -15z"/>
<path d="M2320 2214 c-18 -10 -20 -14 -8 -14 9 0 19 -4 22 -9 4 -5 -3 -7 -14
-4 -11 3 -20 0 -20 -6 0 -6 14 -11 30 -11 30 0 40 13 20 25 -8 5 -7 11 1 21
14 17 2 17 -31 -2z"/>
<path d="M547 2183 c-4 -3 -7 -14 -7 -24 0 -9 -7 -19 -15 -23 -17 -6 -21 -46
-4 -46 6 0 8 9 4 23 -6 16 -4 19 4 11 7 -6 13 -20 14 -32 1 -16 5 -19 19 -11
22 12 24 31 3 23 -18 -7 -20 7 -2 25 10 11 10 14 0 18 -18 7 -16 23 3 23 8 0
12 5 9 10 -7 12 -19 13 -28 3z"/>
<path d="M580 2141 c0 -11 4 -21 9 -21 18 0 21 18 6 30 -13 10 -15 9 -15 -9z"/>
<path d="M2420 2100 c0 -4 14 -16 30 -29 17 -12 28 -26 25 -32 -4 -5 1 -9 9
-9 9 0 16 9 16 20 0 14 -6 20 -17 18 -12 -2 -19 4 -21 19 -2 14 -10 21 -23 20
-10 -1 -19 -4 -19 -7z"/>
<path d="M2507 2036 c-4 -10 6 -23 28 -36 19 -12 37 -30 40 -41 4 -10 10 -17
14 -15 4 3 6 -7 5 -22 -1 -15 -2 -27 -4 -27 -1 0 -3 -14 -4 -30 -1 -17 -5 -36
-9 -42 -3 -5 -2 -24 3 -41 5 -20 5 -34 -1 -38 -5 -3 -7 -10 -3 -15 4 -6 11 -6
19 1 11 9 12 16 2 31 -10 16 -9 22 3 30 11 8 12 12 3 16 -7 2 -13 9 -13 14 0
5 6 9 13 9 8 0 13 20 14 63 l2 64 -49 46 c-28 26 -52 47 -54 47 -2 0 -6 -7 -9
-14z"/>
<path d="M2498 1982 c-15 -17 -13 -52 2 -52 15 0 21 18 9 26 -9 5 -7 11 5 20
9 6 13 15 8 18 -5 3 -16 -2 -24 -12z"/>
<path d="M2541 1930 c10 -27 29 -42 29 -22 -1 24 -14 52 -26 52 -10 0 -11 -6
-3 -30z"/>
<path d="M2510 1885 c0 -8 -5 -15 -11 -15 -8 0 -8 -5 1 -15 16 -19 31 -20 24
-1 -4 10 1 12 19 9 14 -3 28 1 32 7 5 9 1 10 -14 5 -15 -5 -21 -2 -21 9 0 9
-7 16 -15 16 -8 0 -15 -7 -15 -15z"/>
<path d="M364 1766 c-3 -9 -4 -22 -1 -30 3 -8 0 -20 -8 -26 -8 -6 -11 -18 -8
-26 8 -22 25 -17 18 6 -8 26 7 26 23 0 14 -22 32 -18 32 7 0 13 -2 14 -17 2
-15 -13 -16 -12 -11 9 4 15 2 25 -8 29 -11 4 -12 9 -4 18 8 9 8 15 0 20 -5 3
-13 -1 -16 -9z"/>
<path d="M2616 1773 c-3 -3 2 -12 12 -19 16 -13 16 -13 -1 -14 -12 0 -17 -6
-15 -17 2 -10 11 -17 21 -17 13 1 14 -2 6 -17 -6 -12 -6 -19 0 -19 16 0 23 19
15 38 -4 9 -6 27 -5 38 2 21 -21 39 -33 27z"/>
<path d="M396 1751 c-7 -10 22 -37 30 -28 9 8 -3 37 -15 37 -5 0 -12 -4 -15
-9z"/>
<path d="M120 1704 c0 -3 11 -27 25 -54 25 -50 48 -68 38 -30 -5 20 4 25 36
21 26 -4 -1 20 -50 43 -27 14 -49 22 -49 20z"/>
<path d="M2580 1703 c0 -5 7 -16 14 -26 11 -14 15 -15 19 -4 3 8 0 20 -6 26
-13 13 -27 15 -27 4z"/>
<path d="M2624 1510 c0 -11 4 -20 8 -20 4 0 4 -7 1 -17 -4 -10 -2 -14 4 -10
14 9 14 67 -1 67 -6 0 -12 -9 -12 -20z"/>
<path d="M2553 1400 c3 -21 37 -39 37 -20 0 5 7 16 16 24 13 14 14 16 0 16 -8
0 -18 -5 -21 -10 -5 -8 -11 -7 -21 1 -12 10 -14 8 -11 -11z"/>
<path d="M350 1315 c-10 -12 -10 -19 -2 -27 7 -7 12 -25 12 -40 0 -18 5 -28
15 -28 18 0 20 17 3 23 -7 2 -10 8 -6 12 4 4 15 2 23 -5 23 -19 37 0 29 38 -7
33 -30 43 -40 17 -9 -23 -26 -18 -19 5 8 24 2 26 -15 5z m63 -35 c3 -13 0 -20
-9 -20 -8 0 -14 9 -14 20 0 11 4 20 9 20 5 0 11 -9 14 -20z"/>
<path d="M2513 1193 c-21 -7 -14 -23 10 -23 16 0 18 -3 9 -9 -10 -6 -9 -10 7
-14 12 -3 24 -1 27 4 3 5 0 9 -5 9 -6 0 -11 8 -11 18 0 18 -12 23 -37 15z"/>
<path d="M2542 1068 c-12 -33 -9 -49 7 -32 14 13 25 64 14 64 -5 0 -14 -14
-21 -32z"/>
<path d="M2491 1049 c-7 -18 -5 -27 7 -36 19 -16 32 -17 32 -3 0 6 -7 10 -15
10 -18 0 -20 17 -2 23 9 4 9 7 0 17 -10 11 -14 9 -22 -11z"/>
<path d="M505 948 c1 -14 9 -22 23 -23 20 -2 21 0 7 15 -8 9 -12 20 -8 23 3 4
0 7 -9 7 -9 0 -14 -8 -13 -22z"/>
<path d="M2485 961 c3 -5 -12 -23 -32 -40 -32 -26 -34 -31 -16 -31 12 0 23 8
26 20 3 13 10 18 21 14 12 -5 16 0 16 20 0 14 -5 26 -11 26 -5 0 -8 -4 -4 -9z"/>
<path d="M2480 885 c0 -9 -6 -12 -15 -9 -8 4 -17 -1 -21 -10 -8 -21 -24 -21
-24 1 0 12 -3 14 -11 6 -16 -16 -1 -36 22 -30 10 3 22 1 25 -4 3 -5 -2 -9 -10
-9 -9 0 -16 -5 -16 -11 0 -19 35 -4 38 16 3 11 10 24 18 28 16 9 19 37 4 37
-5 0 -10 -7 -10 -15z"/>
<path d="M647 749 c6 -22 19 -25 26 -5 3 8 -2 16 -12 19 -14 3 -17 0 -14 -14z"/>
<path d="M810 562 c0 -10 22 -32 32 -32 5 0 3 9 -4 20 -13 20 -28 27 -28 12z"/>
<path d="M2170 554 c0 -13 -3 -14 -15 -4 -17 14 -36 5 -28 -15 3 -9 -1 -15
-11 -15 -9 0 -16 -4 -16 -10 0 -15 28 -12 37 4 4 8 17 15 28 18 20 3 35 38 16
38 -6 0 -11 -7 -11 -16z"/>
<path d="M1867 513 c-4 -3 -7 -18 -7 -33 0 -24 3 -27 25 -22 25 4 31 13 18 25
-3 4 -12 2 -18 -3 -9 -8 -11 -4 -7 15 4 25 1 31 -11 18z"/>
<path d="M1958 513 c-19 -5 -25 -33 -8 -33 6 0 10 5 10 10 0 6 5 10 10 10 6 0
10 -7 10 -15 0 -8 5 -15 10 -15 14 0 13 13 -2 31 -7 9 -21 14 -30 12z"/>
<path d="M1926 456 c-16 -7 -24 -16 -18 -20 13 -8 62 10 62 24 0 12 -7 12 -44
-4z"/>
<path d="M1300 400 c6 -11 16 -17 25 -14 12 5 12 8 0 20 -21 22 -38 18 -25 -6z"/>
<path d="M1227 383 c-9 -15 9 -35 29 -32 11 1 27 -1 36 -5 19 -8 38 -1 38 15
0 6 -7 6 -19 0 -15 -8 -18 -7 -17 6 0 10 -7 19 -16 21 -12 2 -18 -3 -18 -15
-1 -17 -1 -17 -14 0 -8 10 -16 14 -19 10z"/>
<path d="M1350 374 c0 -11 5 -14 16 -10 9 3 21 6 26 6 18 0 -1 14 -22 17 -13
2 -20 -3 -20 -13z"/>
</g>
</svg>
